<svg xmlns="http://www.w3.org/2000/svg" xmlns:xlink="http://www.w3.org/1999/xlink" width="500" zoomAndPan="magnify" viewBox="0 0 375 374.999991" height="500" preserveAspectRatio="xMidYMid meet" version="1.0"><defs><clipPath id="cd536bca3e"><path d="M 68.25 45 L 306.75 45 L 306.75 337.5 L 68.25 337.5 Z M 68.25 45 " clip-rule="nonzero"/></clipPath></defs><g clip-path="url(#cd536bca3e)"><path fill="#308ff9" d="M 218.160156 272.050781 L 160.804688 287.425781 L 160.804688 234.921875 L 218.160156 219.546875 C 243.652344 212.71875 257.3125 217.554688 257.3125 235.460938 C 257.304688 253.664062 243.652344 265.214844 218.160156 272.050781 M 209.660156 135.9375 C 233.640625 129.507812 246.6875 134.207031 246.6875 150.90625 C 246.6875 167.59375 233.636719 179.589844 209.660156 186.011719 L 160.804688 199.097656 L 160.804688 149.023438 Z M 267.933594 185.269531 C 285.234375 171.527344 296.15625 152.210938 296.15625 130.972656 C 296.15625 97.890625 268.839844 83.058594 215.730469 97.292969 L 118.292969 123.398438 C 118.292969 123.398438 97.207031 115.121094 86.53125 93.277344 L 218.949219 48.796875 C 218.949219 48.796875 206.441406 37.542969 157.667969 55.464844 C 108.890625 73.386719 72.210938 87.980469 72.210938 87.980469 L 68.25 305.179688 C 73.230469 320.546875 94.042969 334.671875 111.941406 337.53125 L 221.800781 308.097656 C 277.640625 293.136719 306.773438 264.085938 306.773438 227.363281 C 306.773438 200.660156 291.597656 186.511719 267.933594 185.269531 Z M 246.839844 53.496094 L 265.183594 70.167969 L 249.132812 45.363281 C 249.132812 45.363281 106.144531 91.429688 103.644531 92.679688 Z M 258.09375 63.917969 L 274.558594 80.589844 L 260.386719 55.792969 C 260.386719 55.792969 117.398438 101.859375 114.898438 103.109375 Z M 269.039062 74.886719 L 278.253906 84.222656 L 271.332031 66.761719 C 271.332031 66.761719 128.34375 112.828125 125.84375 114.078125 Z M 269.039062 74.886719 " fill-opacity="1" fill-rule="nonzero"/></g></svg>