<svg xmlns="http://www.w3.org/2000/svg" xmlns:xlink="http://www.w3.org/1999/xlink" width="500" zoomAndPan="magnify" viewBox="0 0 375 374.999991" height="500" preserveAspectRatio="xMidYMid meet" version="1.0"><defs><clipPath id="911f381501"><path d="M 69.191406 46 L 305.441406 46 L 305.441406 336.433594 L 69.191406 336.433594 Z M 69.191406 46 " clip-rule="nonzero"/></clipPath></defs><g clip-path="url(#911f381501)"><path fill="#0080a4" d="M 217.914062 271.378906 L 161.015625 286.632812 L 161.015625 234.542969 L 217.914062 219.292969 C 243.203125 212.519531 256.757812 217.316406 256.757812 235.082031 C 256.75 253.140625 243.203125 264.601562 217.914062 271.378906 M 209.484375 136.34375 C 233.269531 129.964844 246.214844 134.628906 246.214844 151.191406 C 246.214844 167.75 233.269531 179.652344 209.484375 186.019531 L 161.015625 199.003906 L 161.015625 149.328125 Z M 267.292969 185.285156 C 284.457031 171.652344 295.292969 152.488281 295.292969 131.417969 C 295.292969 98.597656 268.191406 83.882812 215.503906 98.007812 L 118.835938 123.902344 C 118.835938 123.902344 97.917969 115.691406 87.328125 94.023438 L 218.699219 49.894531 C 218.699219 49.894531 206.289062 38.726562 157.898438 56.507812 C 109.511719 74.289062 73.117188 88.769531 73.117188 88.769531 L 69.191406 304.25 C 74.128906 319.492188 94.78125 333.503906 112.539062 336.34375 L 221.527344 307.140625 C 276.925781 292.300781 305.828125 263.476562 305.828125 227.046875 C 305.828125 200.554688 290.773438 186.519531 267.292969 185.285156 Z M 246.367188 54.554688 L 264.566406 71.097656 L 248.640625 46.488281 C 248.640625 46.488281 106.785156 92.191406 104.300781 93.429688 Z M 257.53125 64.894531 L 273.867188 81.433594 L 259.808594 56.832031 C 259.808594 56.832031 117.949219 102.535156 115.46875 103.773438 Z M 268.390625 75.773438 L 277.535156 85.039062 L 270.667969 67.714844 C 270.667969 67.714844 128.808594 113.417969 126.328125 114.65625 Z M 268.390625 75.773438 " fill-opacity="1" fill-rule="nonzero"/></g></svg>